<svg width="391" height="52" viewBox="0 0 391 52" fill="none" xmlns="http://www.w3.org/2000/svg">
<path d="M347.217 52H13.2025C13.0145 52 12.9205 52 12.841 51.999C5.7857 51.9127 0.0872909 46.2143 0.000972839 39.159C0 39.0795 0 38.9855 0 38.7975C0 38.6522 0 38.5796 0.000571452 38.512C0.0499027 32.6753 3.2737 27.3286 8.41254 24.5607C8.47206 24.5286 8.5363 24.4947 8.66476 24.4269L12.7429 22.2746C13.7014 21.7687 14.1806 21.5158 14.594 21.2258C16.4394 19.9314 17.6531 17.9185 17.9365 15.6822C18 15.1813 18 14.6394 18 13.5557C18 11.181 18 9.99359 18.1826 9.00389C19.0102 4.51918 22.5192 1.01018 27.0039 0.182628C27.9936 0 29.181 0 31.5557 0H366.415C379.993 0 391 11.0072 391 24.5854C391 30.8895 385.889 36 379.585 36H375.135C374.233 36 373.781 36 373.356 36.0455C371.33 36.2625 369.463 37.2447 368.136 38.7915C367.858 39.1157 367.602 39.4878 367.091 40.2319L365.675 42.2902L365.675 42.2905C363.233 45.843 362.012 47.6193 360.416 48.904C359.004 50.0415 357.384 50.8937 355.646 51.4132C353.684 52 351.528 52 347.217 52Z" fill="#CD5CFF"/>
</svg>
