<svg width="407" height="70" viewBox="0 0 407 70" fill="none" xmlns="http://www.w3.org/2000/svg">
<path d="M347.622 69.7344H15.6989C13.5733 69.7344 12.5104 69.7344 11.6185 69.6141C5.63414 68.8072 0.927168 64.1002 0.120268 58.1159C0 57.2239 0 56.1611 0 54.0354C0 51.9009 0 50.8336 0.0919112 49.8438C0.69732 43.324 4.2466 37.4375 9.73 33.859C10.5625 33.3157 11.5064 32.8175 13.3941 31.8212L17.0889 29.8712L17.0889 29.8712C18.3742 29.1928 19.0168 28.8536 19.5712 28.4648C22.046 26.7289 23.6736 24.0295 24.0537 21.0306C24.1388 20.3588 24.1388 19.6321 24.1388 18.1788C24.1388 14.9942 24.1388 13.4019 24.3837 12.0746C25.4935 6.06042 30.1992 1.3547 36.2134 0.244913C37.5407 0 39.133 0 42.3176 0H370.764C390.41 0 406.337 15.9266 406.337 35.573C406.337 42.5896 400.649 48.2776 393.632 48.2776H386.516C383.886 48.2776 382.571 48.2776 381.357 48.5638C379.588 48.9808 377.954 49.8404 376.608 51.062C375.684 51.9002 374.939 52.9838 373.449 55.1508L373.449 55.1511L372.375 56.7131L372.375 56.7134C369.1 61.4776 367.462 63.8597 365.323 65.5825C363.429 67.1079 361.256 68.2507 358.926 68.9474C356.294 69.7344 353.403 69.7344 347.622 69.7344Z" fill="#760CE1"/>
</svg>
