<svg viewBox="0 0 107 40" fill="none" xmlns="http://www.w3.org/2000/svg">
<path d="M83.2707 39H8.35179C8.02515 39 7.86184 39 7.72378 38.9945C4.07471 38.8504 1.14956 35.9253 1.00545 32.2762C1 32.1382 1 31.9748 1 31.6482C1 31.1571 1 30.9116 1.00645 30.6846C1.17284 24.8238 4.5315 19.5235 9.76004 16.8704C9.96255 16.7677 10.1846 16.6628 10.6286 16.4531L14.9665 14.4047C17.4291 13.2418 19 10.7628 19 8.03937C19 4.15163 22.1516 1 26.0394 1H101.135C103.822 1 106 3.17798 106 5.86466C106 7.37511 106 8.13034 105.879 8.8194C105.512 10.896 104.341 12.7441 102.62 13.9618C102.049 14.3659 101.366 14.6884 100 15.3333L99.9999 15.3334C97.2683 16.6233 95.9025 17.2683 94.7601 18.0764C91.3172 20.5118 88.975 24.208 88.2429 28.3612C88 29.7393 88 31.2498 88 34.2707C88 36.8826 85.8826 39 83.2707 39Z" fill="#760CE1" stroke="#760CE1"/>
</svg>
