<svg width="223" height="48" viewBox="0 0 223 48" fill="none" xmlns="http://www.w3.org/2000/svg">
<path d="M43.7831 0H210.964C217.611 0 223 5.38887 223 12.0364C223 18.5505 218.745 24.3002 212.515 26.2038L211 26.6667C210.678 26.7651 210.517 26.8143 210.373 26.8642C207.261 27.9459 205.131 30.8246 205.006 34.1167C205 34.2686 205 34.437 205 34.7738V35.3232C205 36.8806 205 37.6593 204.921 38.3138C204.316 43.3478 200.348 47.3157 195.314 47.9213C194.659 48 193.881 48 192.323 48H23.5789C10.5567 48 0 37.4433 0 24.4211C0 19.7702 3.77023 16 8.42105 16H14.7802C16.7413 16 17.7218 16 18.6271 15.7866C19.9463 15.4757 21.1649 14.8347 22.1685 13.9238C22.8571 13.2987 23.4127 12.4907 24.5236 10.8748L24.5237 10.8746L25.3245 9.70975L25.3246 9.70964C27.7671 6.15702 28.9883 4.3807 30.5836 3.09601C31.9961 1.95855 33.6161 1.10635 35.3537 0.5868C37.3161 0 39.4718 0 43.7831 0Z" fill="#F4F4F4"/>
</svg>
