<svg width="223" height="48" viewBox="0 0 223 48" fill="none" xmlns="http://www.w3.org/2000/svg">
<path d="M179.217 48H11.5352C5.16449 48 0 42.8355 0 36.4648C0 30.7334 3.44619 25.5641 8.73673 23.3597L12.1224 21.949C13.0397 21.5668 13.4983 21.3757 13.897 21.1533C16.1471 19.8983 17.655 17.6364 17.9481 15.0767C18 14.6232 18 14.1263 18 13.1327C18 11.1515 18 10.1609 18.1273 9.33148C18.856 4.58257 22.5826 0.856043 27.3315 0.127279C28.1609 0 29.1515 0 31.1327 0H199.421C212.443 0 223 10.5567 223 23.5789C223 28.2298 219.23 32 214.579 32H208.22C206.259 32 205.278 32 204.373 32.2134C203.054 32.5243 201.835 33.1653 200.832 34.0762C200.143 34.7013 199.587 35.5093 198.476 37.1252L198.476 37.1254L197.675 38.2902L197.675 38.2904C195.233 41.843 194.012 43.6193 192.416 44.904C191.004 46.0415 189.384 46.8937 187.646 47.4132C185.684 48 183.528 48 179.217 48Z" fill="#C542FF"/>
</svg>
