<svg width="1162" height="1436" viewBox="0 0 1162 1436" fill="none" xmlns="http://www.w3.org/2000/svg">
<path d="M990.417 1113.44C903.897 1071.99 933.805 952.151 945.555 927.584C900.693 963.901 860.102 927.584 853.693 901.948C806.694 1060.03 872.92 1148.69 955.168 1198.89C1065.19 1279.01 901.76 1422.14 814.171 1254.44C726.583 1086.74 624.483 1090.08 553.543 1113.44C465.954 1142.28 447.796 1212.78 364.479 1275.8C233.097 1368.73 169.007 1322.8 167.939 1250.17C166.871 1177.53 285.437 1103.83 392.252 1022.65C477.704 957.706 486.961 856.373 479.84 816.496C446.513 676.354 508.68 665.886 537.52 649.863C500.775 630.209 506.543 579.721 514.02 556.934C470.226 564.411 329.23 643.455 377.297 771.633C415.75 874.176 376.446 932.224 301.458 977.787C217.075 1029.06 54.287 1125.62 69.6685 1268.32C88.8952 1446.71 257.664 1437.09 343.116 1401.84C428.568 1366.59 461.563 1297.77 556.746 1225.6C653.949 1151.9 707.604 1270.45 749.014 1331.35C785.332 1384.75 828.057 1431.75 901.76 1434.96C975.463 1438.16 1090.82 1371.94 1092.96 1269.39C1094.67 1187.36 1041.69 1138.01 990.417 1113.44Z" fill="url(#paint0_linear_31_112)"/>
<path d="M395.387 995.605C570.887 892.538 735.491 637.184 809.107 480.271L667.765 361.348C454.279 526.519 242.757 505.598 190.735 480.271L395.387 995.605Z" fill="url(#paint1_linear_31_112)"/>
<path d="M747.864 473.055C767.837 489.924 789.008 513.62 809.491 543.398C813.404 549.086 825.769 541.999 825.963 534.105C827.171 484.964 838.599 415.548 858.48 376.4C922.815 249.722 974.562 126.571 948.615 104.471C922.667 82.3712 826.602 167.776 730.53 267.422C700.785 298.275 641.49 327.113 598.006 340.233C591.122 342.31 588.043 356.487 594.003 359.195C634.859 377.761 667.463 399.707 690.435 420.479L747.864 473.055Z" fill="#9B17EE"/>
<path d="M690.435 420.479L742.224 467.891C778.435 441.298 859.718 370.763 895.159 301.363C940.452 204.372 969.356 122.137 948.615 104.471C928.65 87.4673 867.177 134.104 796.13 201.904C741.326 259.56 698.234 367.628 683.538 414.454C685.926 416.471 688.225 418.48 690.435 420.479Z" fill="url(#paint2_linear_31_112)"/>
<path d="M781.434 899.257C789.232 887.29 802.576 869.121 810.037 860.314C816.124 853.129 818.672 850.674 821.798 848.984C828.894 845.149 845.989 842.059 870.479 840.187C874.077 839.912 877.058 839.642 877.104 839.589C877.15 839.535 874.806 839.214 871.896 838.874C860.8 837.58 848.909 835.214 842.434 833.01C836.244 830.903 833.591 828.826 833.646 826.128C833.764 820.46 843.721 797.992 857.146 773.099C858.224 771.102 856.977 772.758 853.438 778.023C838.75 799.88 823.918 819.27 817.605 824.869C816.209 826.106 813.945 827.661 812.572 828.325C804.943 832.011 785.966 835.184 761.444 836.87L758.004 837.107L760.124 837.423C761.29 837.598 765.327 838.178 769.095 838.713C787.752 841.364 799.221 844.907 801.265 848.653C801.533 849.144 801.74 850.149 801.725 850.886C801.616 856.156 792.526 877.198 781.152 898.506C780.179 900.33 779.429 901.882 779.485 901.955C779.543 902.028 780.42 900.814 781.434 899.257Z" fill="white"/>
<path d="M603.227 584.81C603.227 570.982 551.688 582.655 551.688 546.916C551.688 528.597 570.544 518 586.886 518C605.203 518 623.699 529.135 623.161 551.405H603.945C604.305 541.707 595.147 537.577 586.527 537.577C578.805 537.577 571.442 540.809 571.442 546.197C571.442 564.516 622.981 548.532 622.981 583.913C622.981 601.873 605.023 611.75 586.886 611.75C568.389 611.75 549.713 601.333 549.713 578.525H568.927C568.748 588.223 578.805 592.174 588.143 592.174C595.865 592.174 603.227 589.301 603.227 584.81ZM645.622 569.904C664.119 569.904 651.189 591.456 679.383 591.456C689.619 591.456 699.855 586.068 705.062 574.933L719.608 585.709C712.246 602.77 696.083 611.212 679.562 611.212C656.576 611.212 633.41 595.227 633.41 564.696C633.41 533.445 656.038 518.18 677.947 518.18C698.598 518.18 718.531 531.65 718.531 557.692V568.108H645.622V569.904ZM657.115 550.149H697.7C694.827 542.066 687.285 538.115 679.203 538.115C671.122 538.115 662.323 542.066 657.115 550.149ZM745.563 560.924V609.954H727.605V520.155H745.563V526.082C745.563 528.058 745.922 528.956 746.82 528.956C747.359 528.956 748.078 528.417 749.155 527.339C756.338 519.976 760.827 518.359 767.831 518.359C780.043 518.359 788.123 523.568 792.613 533.445C800.335 521.951 812.007 518.359 818.472 518.359C836.431 518.359 847.385 532.189 847.385 556.255V609.954H829.427V561.104C829.427 545.479 821.885 538.654 814.163 538.654C805.722 538.654 796.743 546.916 796.743 561.284V609.954H778.785V561.104C778.785 545.479 771.063 538.474 763.162 538.474C754.542 538.474 745.563 546.556 745.563 560.924ZM571.442 678.376C571.442 695.797 584.731 705.316 598.558 705.316C608.794 705.316 619.21 699.928 624.238 688.793L638.784 699.569C631.421 716.631 615.079 725.072 598.378 725.072C575.213 725.072 551.688 709.088 551.688 678.556C551.688 648.024 575.213 632.04 598.378 632.04C615.079 632.04 631.421 640.481 638.784 657.543L624.238 668.319C619.21 657.184 608.615 651.796 598.378 651.796C584.731 651.796 571.442 661.135 571.442 678.376ZM688.264 725.611C631.696 725.611 629.541 632.219 688.264 632.219C746.986 632.219 744.831 725.611 688.264 725.611ZM688.264 651.975C655.939 651.975 656.478 705.855 688.084 705.855C719.869 705.855 719.69 651.975 688.264 651.975ZM757.663 674.784V723.815H739.706V634.015H757.663V639.942C757.663 641.918 758.023 642.816 758.921 642.816C759.459 642.816 760.178 642.277 761.255 641.199C768.438 633.836 772.928 632.219 779.932 632.219C792.143 632.219 800.224 637.428 804.713 647.305C812.435 635.811 824.108 632.219 830.573 632.219C848.531 632.219 859.485 646.049 859.485 670.115V723.815H841.527V674.964C841.527 659.339 833.985 652.514 826.263 652.514C817.823 652.514 808.844 660.776 808.844 675.144V723.815H790.886V674.964C790.886 659.339 783.164 652.334 775.263 652.334C766.642 652.334 757.663 660.417 757.663 674.784ZM888.9 638.506C894.287 634.914 901.65 632.219 909.012 632.219C965.761 632.219 963.6 725.79 913.322 725.79C902.547 725.79 894.825 722.557 888.541 716.272C887.104 714.835 886.386 715.194 886.386 717.17V768.715H868.428V634.015H886.386V637.248C886.386 639.224 887.283 639.583 888.9 638.506ZM888.361 679.813C888.361 697.234 899.495 706.214 910.629 706.214C921.224 706.214 931.639 697.773 931.639 679.992C931.639 660.955 921.045 651.975 910.449 651.975C899.495 651.975 888.361 661.494 888.361 679.813ZM956.977 723.815V713.595C959.105 691.84 993.5 692.042 993.5 671.906C993.5 666.341 987.941 663.002 982.074 663.002C975.492 663.002 968.611 666.846 968.919 676.156H957.891C958.398 659.359 970.332 651.972 982.074 651.972C994.614 651.972 1004.74 660.27 1004.74 673.222C1004.74 699.227 969.825 699.935 968.412 713.696H1002.31V723.815H956.977ZM1019.38 703.274C1020.08 710.053 1025.65 713.494 1032.03 713.494C1040.52 713.494 1044.87 707.523 1044.87 701.554C1044.87 692.649 1038.09 688.703 1030.81 688.703C1027.26 688.703 1023.62 689.613 1020.59 691.334L1010.47 691.03L1012.6 652.883L1015.12 652.984H1048.51V663.103H1022.21L1021.2 680.608C1025.14 678.787 1029.39 677.876 1033.44 677.876C1045.28 677.876 1056 685.465 1056 700.744C1056 712.785 1048.21 724.927 1031.62 724.927C1021.9 724.927 1012.3 719.362 1009.26 708.03L1019.38 703.274Z" fill="white"/>
<path fill-rule="evenodd" clip-rule="evenodd" d="M385.815 617.836C382.494 613.059 377.697 607.774 371.627 602.546C371.124 602.112 371.63 601.118 372.283 601.239C380.191 602.708 393.667 602.453 400.727 599.237C420.863 590.065 440.518 583.184 444.305 588.592C448.091 594 434.903 610.118 419.397 625.905C413.983 631.417 409.262 644.076 407.954 652.072C407.847 652.722 406.78 652.855 406.546 652.238C402.99 642.852 398.729 635.236 394.791 629.891L368.947 645.933L394.791 690.181L414.131 685.821C413.655 680.249 412.83 674.928 411.748 669.905C416.744 663.65 422.487 657.489 427.539 652.07C430.218 649.195 432.703 646.53 434.778 644.17C461.601 613.667 481.845 579.167 474.702 568.965C467.559 558.763 428.22 565.988 390.385 580.764C387.666 581.826 384.528 583.143 381.107 584.579L381.107 584.58C374.53 587.341 366.908 590.541 359.206 593.208C356.813 591.637 354.304 590.106 351.686 588.633L348.352 610.671L359.938 630.509L385.815 617.836Z" fill="white"/>
<path d="M393.252 768.649C430.944 707.568 410.35 651.008 394.791 629.891L206.168 746.936C205.185 747.546 205.004 748.932 205.889 749.678C211.313 754.253 228.2 763.119 279.385 739.666C325.957 718.327 349.398 735.562 355.296 746.848C374.393 785.045 316.096 812.178 279.001 822.747C277.705 823.117 277.879 824.977 279.226 825.032C319.043 826.642 367.112 811.01 393.252 768.649Z" fill="white"/>
<path d="M385.816 617.835C367.474 591.452 304.09 549.56 230.144 587.419C228.626 588.197 228.976 590.406 230.66 590.685C243.801 592.868 265.812 598.285 280.032 625.868C280.804 627.366 279.224 628.943 277.691 628.242C251.741 616.363 208.305 605.833 183.983 648.87C173.982 666.568 179.265 713.042 249.637 684.522L385.816 617.835Z" fill="white"/>
<path d="M242.609 794.357C244.02 794.02 243.632 791.919 242.181 791.975C144.871 795.741 121.807 753.239 169.733 711.253C170.706 710.4 169.877 708.769 168.637 709.137C113.714 725.446 104.625 754.715 106.154 767.681C111.465 814.047 187.304 807.591 242.609 794.357Z" fill="white"/>
<path d="M289.42 852.52C310.8 852.52 326.458 848.695 342.714 842.121C343.767 841.695 344.933 842.426 344.995 843.56L345.372 850.521C345.79 858.216 341.427 865.372 334.395 868.524C305.636 881.417 272.782 882.12 243.464 870.552C235.988 867.602 231.207 860.188 231.639 852.162L232.07 844.14C232.134 842.959 233.352 842.2 234.447 842.648C250.62 849.277 266.679 852.992 289.42 852.52Z" fill="white"/>
<path d="M335.427 881.42L335.975 881.191C336.81 880.841 337.741 881.422 337.792 882.325L338.199 889.48C338.616 896.792 334.683 903.663 328.167 907.008C303.681 919.578 274.803 920.325 249.702 909.035C242.711 905.89 238.38 898.762 238.81 891.108L239.273 882.878C239.325 881.94 240.295 881.34 241.159 881.707C257.008 888.449 266.472 892.236 289.42 891.76C310.734 891.76 319.814 887.958 335.427 881.42Z" fill="white"/>
<defs>
<linearGradient id="paint0_linear_31_112" x1="68.2298" y1="1736.47" x2="953.967" y2="74.8655" gradientUnits="userSpaceOnUse">
<stop/>
<stop offset="0.5" stop-color="#66109C"/>
<stop offset="1" stop-color="#8715CF"/>
</linearGradient>
<linearGradient id="paint1_linear_31_112" x1="753.159" y1="415.855" x2="196.914" y2="696.227" gradientUnits="userSpaceOnUse">
<stop stop-color="white" stop-opacity="0.3"/>
<stop offset="0.678428" stop-color="white" stop-opacity="0"/>
</linearGradient>
<linearGradient id="paint2_linear_31_112" x1="932.377" y1="421.967" x2="686.819" y2="252.205" gradientUnits="userSpaceOnUse">
<stop/>
<stop offset="0.468164" stop-opacity="0.1"/>
<stop offset="0.658959" stop-opacity="0.1"/>
<stop offset="1" stop-opacity="0.8"/>
</linearGradient>
</defs>
</svg>
