<svg width="28" height="28" viewBox="0 0 28 28" fill="none" xmlns="http://www.w3.org/2000/svg">
<path d="M9.6491 27.6615L7.07462 25.0871C6.86971 24.8794 6.75005 24.6025 6.73925 24.3109C6.72846 24.0194 6.82729 23.7343 7.01628 23.5121C7.3084 23.1689 7.46093 22.7285 7.44364 22.2782C7.42635 21.8278 7.24051 21.4004 6.92294 21.0806C6.60317 20.7632 6.17586 20.5775 5.72564 20.5602C5.27542 20.5429 4.83512 20.6954 4.49196 20.9873C4.26966 21.1763 3.98462 21.2751 3.69305 21.2643C3.40148 21.2535 3.12453 21.1339 2.91682 20.929L0.339416 18.3523C0.122069 18.1345 0 17.8394 0 17.5318C0 17.2241 0.122069 16.929 0.339416 16.7113L4.44296 12.6074C4.69725 12.354 5.00675 12.1629 5.34721 12.0491C5.41267 12.0269 5.47214 11.99 5.521 11.9411C5.56987 11.8923 5.60682 11.8328 5.62898 11.7673C5.74281 11.4268 5.93412 11.1172 6.18787 10.8631L16.7122 0.339398C16.9299 0.122063 17.225 0 17.5327 0C17.8404 0 18.1355 0.122063 18.3532 0.339398L20.9277 2.91667C21.1326 3.12437 21.2523 3.4013 21.2631 3.69286C21.2739 3.98442 21.175 4.26944 20.9861 4.49173C20.6916 4.83409 20.5373 5.27509 20.5543 5.72635C20.5712 6.17762 20.7581 6.60581 21.0774 6.92512C21.3968 7.24444 21.825 7.43129 22.2763 7.44824C22.7276 7.46518 23.1686 7.31097 23.511 7.01649C23.7333 6.82752 24.0183 6.72869 24.3099 6.73949C24.6014 6.75028 24.8784 6.86993 25.0861 7.07483L27.6606 9.64918C27.8779 9.86693 28 10.162 28 10.4697C28 10.7773 27.8779 11.0724 27.6606 11.2902L17.1363 21.8139C16.8823 22.0675 16.573 22.2588 16.2326 22.3728C16.167 22.3948 16.1073 22.4318 16.0583 22.4808C16.0093 22.5298 15.9723 22.5894 15.9503 22.6551C15.8364 22.9954 15.6453 23.3047 15.392 23.5587L11.2878 27.6621C11.0701 27.8786 10.7754 28.0001 10.4683 28C10.1612 27.9999 9.86669 27.8782 9.6491 27.6615ZM7.91936 14.3394C8.00606 14.2527 8.07483 14.1498 8.12175 14.0365C8.16868 13.9233 8.19283 13.8019 8.19283 13.6793C8.19283 13.5567 8.16868 13.4353 8.12175 13.3221C8.07483 13.2088 8.00606 13.1059 7.91936 13.0192L7.24788 12.3478C7.07195 12.177 6.83588 12.0823 6.59069 12.0842C6.3455 12.086 6.11089 12.1842 5.93755 12.3577C5.76421 12.5311 5.66606 12.7657 5.66432 13.0109C5.66259 13.2561 5.7574 13.4921 5.92826 13.6679L6.59916 14.3394C6.68583 14.4261 6.78874 14.4948 6.902 14.5417C7.01527 14.5887 7.13666 14.6128 7.25926 14.6128C7.38185 14.6128 7.50325 14.5887 7.61651 14.5417C7.72977 14.4948 7.83268 14.4261 7.91936 14.3394ZM10.4863 16.9061C10.6612 16.7311 10.7594 16.4938 10.7594 16.2464C10.7594 15.9989 10.6612 15.7616 10.4863 15.5866L9.84454 14.9449C9.75785 14.8582 9.65494 14.7895 9.54168 14.7425C9.42842 14.6956 9.30703 14.6715 9.18443 14.6715C9.06184 14.6715 8.94045 14.6956 8.82719 14.7425C8.71393 14.7895 8.61102 14.8582 8.52433 14.9449C8.34926 15.12 8.25091 15.3574 8.25091 15.605C8.25091 15.7275 8.27505 15.8489 8.32197 15.9622C8.36888 16.0754 8.43765 16.1783 8.52433 16.265L9.16606 16.9067C9.25273 16.9937 9.35572 17.0627 9.46912 17.1099C9.58252 17.157 9.70411 17.1813 9.82691 17.1813C9.94972 17.1814 10.0713 17.1572 10.1848 17.1102C10.2982 17.0632 10.4013 16.9942 10.488 16.9073L10.4863 16.9061ZM13.0532 19.4729C13.1399 19.3862 13.2086 19.2833 13.2556 19.1701C13.3025 19.0568 13.3266 18.9354 13.3266 18.8128C13.3266 18.6902 13.3025 18.5689 13.2556 18.4556C13.2086 18.3423 13.1399 18.2394 13.0532 18.1528L12.4114 17.5111C12.2355 17.3403 11.9994 17.2456 11.7542 17.2474C11.5091 17.2493 11.2744 17.3475 11.1011 17.5209C10.9278 17.6943 10.8296 17.929 10.8279 18.1742C10.8261 18.4193 10.921 18.6554 11.0918 18.8312L11.7335 19.4729C11.8201 19.5601 11.923 19.6294 12.0363 19.6768C12.1497 19.7242 12.2713 19.7487 12.3942 19.749C12.5171 19.7493 12.6388 19.7253 12.7524 19.6784C12.866 19.6315 12.9692 19.5627 13.0561 19.4758L13.0532 19.4729ZM15.6516 22.0648C15.7383 21.9781 15.807 21.8752 15.854 21.7619C15.9009 21.6487 15.925 21.5273 15.925 21.4047C15.925 21.2821 15.9009 21.1607 15.854 21.0475C15.807 20.9342 15.7383 20.8313 15.6516 20.7446L14.9807 20.0773C14.8943 19.9887 14.7911 19.9183 14.6772 19.87C14.5633 19.8217 14.441 19.7965 14.3172 19.7959C14.1935 19.7953 14.0709 19.8194 13.9566 19.8666C13.8422 19.9138 13.7384 19.9832 13.6512 20.0709C13.5639 20.1586 13.4949 20.2627 13.4483 20.3773C13.4016 20.4919 13.3782 20.6146 13.3794 20.7383C13.3806 20.862 13.4064 20.9842 13.4552 21.0979C13.5041 21.2115 13.575 21.3143 13.664 21.4003L14.3343 22.0683C14.421 22.1549 14.5239 22.2236 14.6372 22.2705C14.7505 22.3174 14.8719 22.3415 14.9945 22.3414C15.1171 22.3414 15.2385 22.3172 15.3517 22.2702C15.465 22.2232 15.5678 22.1544 15.6545 22.0677L15.6516 22.0648Z" fill="#AC5BA7"/>
</svg>
