<svg width="22" height="22" viewBox="0 0 22 22" fill="none" xmlns="http://www.w3.org/2000/svg">
<path d="M11.3284 5.8445C14.2333 5.8445 16.631 8.24217 16.631 11.147C16.631 14.098 14.2333 16.4496 11.3284 16.4496C8.37746 16.4496 6.02589 14.098 6.02589 11.147C6.02589 8.24217 8.37746 5.8445 11.3284 5.8445ZM11.3284 14.6052C13.2189 14.6052 14.7405 13.0836 14.7405 11.147C14.7405 9.25657 13.2189 7.73497 11.3284 7.73497C9.39186 7.73497 7.87026 9.25657 7.87026 11.147C7.87026 13.0836 9.43797 14.6052 11.3284 14.6052ZM18.0604 5.66006C18.0604 4.96843 17.5071 4.41512 16.8154 4.41512C16.1238 4.41512 15.5705 4.96843 15.5705 5.66006C15.5705 6.3517 16.1238 6.90501 16.8154 6.90501C17.5071 6.90501 18.0604 6.3517 18.0604 5.66006ZM21.5647 6.90501C21.6569 8.61105 21.6569 13.7292 21.5647 15.4352C21.4724 17.0951 21.1036 18.5245 19.9047 19.7695C18.7059 20.9683 17.2304 21.3372 15.5705 21.4294C13.8644 21.5216 8.74633 21.5216 7.04029 21.4294C5.38037 21.3372 3.95098 20.9683 2.70604 19.7695C1.5072 18.5245 1.13833 17.0951 1.04611 15.4352C0.953891 13.7292 0.953891 8.61105 1.04611 6.90501C1.13833 5.24508 1.5072 3.76959 2.70604 2.57075C3.95098 1.37191 5.38037 1.00304 7.04029 0.910824C8.74633 0.818606 13.8644 0.818606 15.5705 0.910824C17.2304 1.00304 18.7059 1.37191 19.9047 2.57075C21.1036 3.76959 21.4724 5.24508 21.5647 6.90501ZM19.3514 17.2335C19.9047 15.8963 19.7664 12.6686 19.7664 11.147C19.7664 9.67156 19.9047 6.44392 19.3514 5.06064C18.9826 4.18457 18.2909 3.44683 17.4148 3.12406C16.0316 2.57075 12.8039 2.70908 11.3284 2.70908C9.80684 2.70908 6.5792 2.57075 5.24204 3.12406C4.31986 3.49293 3.62822 4.18457 3.25935 5.06064C2.70604 6.44392 2.84436 9.67156 2.84436 11.147C2.84436 12.6686 2.70604 15.8963 3.25935 17.2335C3.62822 18.1556 4.31986 18.8473 5.24204 19.2161C6.5792 19.7695 9.80684 19.6311 11.3284 19.6311C12.8039 19.6311 16.0316 19.7695 17.4148 19.2161C18.2909 18.8473 19.0287 18.1556 19.3514 17.2335Z" fill="#F4F4F4"/>
</svg>
