<svg width="30" height="28" viewBox="0 0 30 28" fill="none" xmlns="http://www.w3.org/2000/svg">
<path fill-rule="evenodd" clip-rule="evenodd" d="M22.2108 4.25678C21.9767 3.92005 21.6501 3.55148 21.2425 3.18253C21.1714 3.11819 21.2498 2.95957 21.3449 2.97127C21.9805 3.0494 22.892 3.00943 23.3943 2.78066C24.9925 2.0527 26.5526 1.50654 26.8531 1.93575C27.1536 2.36496 26.1069 3.64419 24.8762 4.89713C24.489 5.29137 24.1464 6.14612 24.0065 6.77563C23.9858 6.86852 23.8182 6.88697 23.7825 6.79875C23.5162 6.13995 23.209 5.6014 22.9232 5.21352L20.872 6.48668L22.9232 9.99847L24.4582 9.65241C24.4205 9.21019 24.355 8.78795 24.2691 8.38924C24.6656 7.89284 25.1215 7.40383 25.5224 6.97376C25.7351 6.74563 25.9323 6.53409 26.097 6.34681C28.226 3.9259 29.8327 1.18781 29.2658 0.378117C28.6988 -0.431572 25.5765 0.141819 22.5735 1.31452C22.3577 1.39878 22.1086 1.50334 21.8371 1.61734L21.837 1.61737C21.3151 1.83651 20.7101 2.09051 20.0988 2.3022C19.9089 2.17747 19.7097 2.05594 19.5019 1.93905L19.2373 3.6881L20.1569 5.26252L22.2108 4.25678Z" fill="#F4F4F4"/>
<path d="M22.7976 16.2257C25.7892 11.378 24.1546 6.88909 22.9197 5.21311L8.07366 14.4249C7.93171 14.5129 7.9059 14.715 8.04378 14.8093C8.58106 15.1769 10.0121 15.6426 13.7599 13.9255C17.4564 12.2319 19.3168 13.5998 19.785 14.4955C21.2274 17.3805 17.1065 19.4702 14.1672 20.3885C13.9815 20.4465 14.0102 20.7097 14.2048 20.7095C17.2684 20.7049 20.822 19.427 22.7976 16.2257Z" fill="#F4F4F4"/>
<path d="M22.2073 4.25637C20.7765 2.19841 15.8925 -1.04845 10.1534 1.69301C9.93119 1.79915 9.98294 2.11321 10.2242 2.16255C11.225 2.36722 12.6442 2.86926 13.6547 4.60815C13.777 4.81855 13.5513 5.04575 13.3272 4.95094C11.2462 4.07058 8.02775 3.46375 6.18774 6.71946C5.39392 8.12402 5.8132 11.8125 11.3987 9.54894L22.2073 4.25637Z" fill="#F4F4F4"/>
<path d="M10.046 18.4462C10.2509 18.4024 10.2018 18.0938 9.99234 18.0949C3.14113 18.1302 1.47688 15.0469 4.78556 11.9184C4.92124 11.7901 4.79722 11.5538 4.61959 11.6114C0.573133 12.9235 -0.105824 15.1479 0.0122207 16.1486C0.408772 19.6102 5.75886 19.362 10.046 18.4462Z" fill="#F4F4F4"/>
<path d="M14.5571 22.883C16.2539 22.883 17.4967 22.5794 18.787 22.0576C18.8705 22.0238 18.9631 22.0818 18.968 22.1718L18.998 22.7243C19.0311 23.335 18.6848 23.903 18.1268 24.1531C15.844 25.1763 13.2365 25.2321 10.9095 24.3141C10.3161 24.0799 9.93663 23.4915 9.97089 22.8545L10.0051 22.2179C10.0102 22.1241 10.1069 22.0639 10.1937 22.0995C11.4774 22.6255 12.7521 22.9204 14.5571 22.883Z" fill="#F4F4F4"/>
<path d="M18.2109 25.1758L18.2544 25.1576C18.3207 25.1298 18.3945 25.1759 18.3986 25.2477L18.4309 25.8154C18.464 26.3958 18.1518 26.9411 17.6347 27.2066C15.6912 28.2042 13.3992 28.2635 11.4069 27.3674C10.852 27.1179 10.5082 26.5522 10.5424 25.9447L10.5791 25.2915C10.5833 25.217 10.6602 25.1694 10.7288 25.1986C11.9867 25.7336 12.7379 26.0342 14.5593 25.9964C16.251 25.9964 16.9717 25.6947 18.2109 25.1758Z" fill="#F4F4F4"/>
</svg>
