<svg width="602" height="590" viewBox="0 0 602 590" fill="none" xmlns="http://www.w3.org/2000/svg">
<path fill-rule="evenodd" clip-rule="evenodd" d="M454.479 87.1057C448.982 79.1984 440.993 70.4334 430.864 61.7829C430.162 61.1826 430.852 59.8275 431.758 60.0086C444.486 62.5509 467.009 62.2244 478.699 56.9002C511.405 42.0039 543.329 30.8281 549.479 39.6109C555.629 48.3936 534.208 74.5704 509.024 100.209C500.065 109.329 492.275 130.495 490.324 143.427C490.187 144.334 488.728 144.51 488.407 143.651C482.579 128.098 475.549 115.492 469.058 106.683L427.083 132.736L469.058 204.597L500.471 197.515C499.699 188.466 498.359 179.826 496.601 171.667C504.715 161.51 514.044 151.503 522.248 142.703C526.6 138.035 530.636 133.706 534.006 129.874C577.573 80.3349 610.452 24.3058 598.851 7.73734C587.25 -8.83117 523.354 2.90201 461.902 26.8987C457.487 28.6229 452.39 30.7626 446.833 33.0954L446.832 33.096C436.151 37.5802 423.771 42.7778 411.262 47.1095C407.374 44.5572 403.299 42.0703 399.047 39.6784L393.632 75.4688L412.451 107.686L454.479 87.1057Z" fill="#7805A6"/>
<path d="M466.559 332.032C527.778 232.834 494.328 140.978 469.058 106.683L162.247 297.047C160.878 297.896 160.623 299.813 161.835 300.874C170.193 308.182 197.158 323.657 281.614 284.963C357.258 250.307 395.33 278.298 404.911 296.626C436.203 359.21 339.55 403.506 279.395 420.341C277.589 420.847 277.843 423.438 279.717 423.528C344.702 426.642 423.742 401.411 466.559 332.032Z" fill="#7805A6"/>
<path d="M454.479 87.1058C424.601 44.1305 321.127 -24.181 200.566 38.2593C198.457 39.3512 198.928 42.4378 201.271 42.8161C222.614 46.2609 259.687 54.6294 283.197 101.197C284.255 103.291 282.057 105.484 279.929 104.497C237.913 85.011 166.499 67.0207 126.661 137.507C110.417 166.249 118.997 241.726 233.296 195.407L454.479 87.1058Z" fill="#7805A6"/>
<path d="M224.708 373.102C226.67 372.623 226.175 369.704 224.157 369.793C62.9437 376.921 24.8742 306.859 104.491 237.971C105.852 236.793 104.701 234.514 102.973 235.019C12.6647 261.431 -2.24539 309.307 0.25008 330.461C8.96744 406.554 134.663 395.045 224.708 373.102Z" fill="#7805A6"/>
<path d="M297.913 468.241C332.636 468.241 358.068 462.028 384.472 451.352C386.182 450.66 388.076 451.848 388.176 453.69L388.79 464.995C389.468 477.491 382.381 489.113 370.962 494.232C324.249 515.169 270.888 516.312 223.269 497.525C211.126 492.735 203.361 480.694 204.062 467.659L204.763 454.631C204.866 452.713 206.845 451.481 208.623 452.209C234.892 462.974 260.976 469.007 297.913 468.241Z" fill="#7805A6"/>
<path d="M372.637 515.179L373.527 514.807C374.884 514.239 376.396 515.182 376.479 516.65L377.141 528.268C377.817 540.144 371.428 551.303 360.846 556.735C321.076 577.149 274.173 578.362 233.402 560.027C222.047 554.92 215.013 543.344 215.711 530.913L216.463 517.547C216.548 516.023 218.123 515.049 219.527 515.646C245.268 526.594 260.64 532.745 297.913 531.972C332.531 531.972 347.279 525.797 372.637 515.179Z" fill="#7805A6"/>
</svg>
