<svg width="1500" height="376" viewBox="0 0 1500 376" fill="none" xmlns="http://www.w3.org/2000/svg">
<g clip-path="url(#clip0_2989_533)">
<path d="M387.049 99.2076C381.411 90.3557 371.594 86.0303 361.583 87.7403L303.845 97.4975C300.541 74.6637 281.1 57.2617 258.258 57.2617C235.513 57.2617 215.976 74.6637 212.671 97.3969L154.934 87.6398C144.825 86.0303 135.105 90.4563 129.468 99.2076C123.83 107.959 123.733 118.923 129.079 127.876C129.079 127.876 129.079 127.976 129.176 127.976L236.583 305.416C241.248 313.161 249.413 317.889 258.258 317.889C267.104 317.889 275.268 313.262 279.934 305.416L387.438 127.976C392.881 119.024 392.687 107.959 387.049 99.2076V99.2076ZM258.258 297.268V300.085V297.268C256.217 297.268 254.467 296.262 253.398 294.452L145.992 117.012C144.728 114.9 144.728 112.586 146.089 110.574C147.158 108.864 148.908 107.858 150.755 107.858C151.143 107.858 151.435 107.858 151.824 107.959L214.324 118.521C220.545 142.159 239.693 173.744 258.355 173.744C277.018 173.744 296.166 142.159 302.387 118.521L364.887 107.959C367.123 107.556 369.261 108.562 370.622 110.574C371.886 112.586 371.983 115 370.719 117.012L263.118 294.452C262.049 296.262 260.299 297.268 258.258 297.268V297.268ZM258.258 77.8826C272.741 77.8826 284.502 89.7521 284.502 104.438C284.502 124.053 263.41 153.224 258.258 153.224C253.009 153.224 232.014 124.053 232.014 104.438C232.014 89.7521 243.775 77.8826 258.258 77.8826V77.8826Z" fill="#FAE232"/>
<path d="M628.016 200.504C628.016 235.006 653.483 257.538 684.393 257.538C696.932 257.538 708.401 254.218 713.359 251.704V225.45C708.207 228.065 698.681 231.988 688.281 231.988C670.493 231.988 655.233 221.225 655.233 200.906C655.233 180.185 671.174 169.623 689.156 169.623C699.07 169.623 708.013 172.54 713.553 176.161V149.807C709.665 147.795 698.487 143.771 684.296 143.771C654.163 143.771 628.016 165.599 628.016 200.504ZM482.507 143.469C454.611 143.469 430.699 166.102 430.699 199.598C430.699 233.799 454.027 257.538 490.964 257.538C508.46 257.538 520.318 251.905 524.401 249.491V225.148C519.443 228.065 505.835 234.101 491.061 234.101C473.565 234.101 459.957 225.148 456.846 209.959H531.399C531.593 207.444 531.885 201.711 531.885 198.291C531.788 164.794 509.626 143.469 482.507 143.469V143.469ZM456.846 191.35C458.207 175.256 468.316 166.706 481.924 166.706C494.852 166.706 505.446 174.552 506.807 191.35H456.846V191.35ZM583.693 187.326C573.973 184.409 565.808 181.995 565.808 175.658C565.808 169.12 573.39 165.8 583.304 165.8C596.718 165.8 607.507 171.132 614.02 174.753V149.505C609.257 147.292 597.787 143.469 583.304 143.469C555.213 143.469 540.05 157.552 540.05 176.06C540.05 196.782 555.991 203.119 570.96 207.545C583.304 211.267 594.968 213.782 594.968 223.136C594.968 230.781 587.581 233.899 576.111 233.899C560.754 233.899 546.271 225.852 541.508 223.136V249.29C547.146 252.207 561.434 257.337 576.889 257.337C602.355 257.337 620.338 243.958 620.338 221.527C620.435 197.385 599.731 191.752 583.693 187.326ZM1365.38 143.469C1350.7 143.469 1339.43 156.244 1335.35 165.197V145.783H1309.39V255.426H1336.22V204.427C1336.22 185.415 1347.69 171.031 1365.57 171.031C1368.39 171.031 1371.6 171.232 1374.91 171.635V144.375C1372.48 143.972 1369.27 143.469 1365.38 143.469V143.469ZM1143.86 97.9023V160.57C1141.04 154.937 1131.03 143.57 1112.56 143.57C1084.66 143.57 1062.7 167.913 1062.7 200.303C1062.7 233.195 1084.57 257.538 1112.56 257.538C1130.35 257.538 1138.71 248.183 1143.86 240.035V255.224H1170.69V97.9023H1143.86V97.9023ZM1117.23 233.195C1102.94 233.195 1089.82 220.219 1089.82 200.303C1089.82 179.682 1103.23 168.114 1117.23 168.114C1133.46 168.114 1145.32 180.889 1145.32 200.101C1145.42 220.018 1133.27 233.195 1117.23 233.195V233.195ZM1239.99 143.469C1210.73 143.469 1184.2 167.812 1184.2 200.504C1184.2 233.195 1210.73 257.538 1239.99 257.538C1269.25 257.538 1295.78 233.195 1295.78 200.504C1295.78 167.812 1269.25 143.469 1239.99 143.469V143.469ZM1239.99 231.385C1224.63 231.385 1211.51 219.314 1211.51 200.504C1211.51 181.693 1224.73 169.623 1239.99 169.623C1255.35 169.623 1268.47 181.693 1268.47 200.504C1268.47 219.314 1255.45 231.385 1239.99 231.385ZM801.908 160.469C799.089 154.836 789.078 143.469 770.61 143.469C742.908 143.469 720.746 167.812 720.746 200.202C720.746 233.095 742.713 257.437 770.61 257.437C788.495 257.437 796.951 248.083 801.908 239.935V255.124H828.93V145.783H801.908V160.469ZM775.567 233.195C761.278 233.195 748.156 220.219 748.156 200.303C748.156 179.682 761.57 168.114 775.567 168.114C791.799 168.114 803.658 180.889 803.658 200.101C803.755 220.018 791.605 233.195 775.567 233.195V233.195ZM1022.16 160.469C1019.35 154.836 1009.33 143.469 990.866 143.469C963.164 143.469 941.002 167.812 941.002 200.202C941.002 233.095 962.97 257.437 990.866 257.437C1008.75 257.437 1017.21 248.083 1022.16 239.935V255.124H1049.19V145.783H1022.16V160.469ZM995.823 233.195C981.535 233.195 968.413 220.219 968.413 200.303C968.413 179.682 981.827 168.114 995.823 168.114C1012.06 168.114 1023.91 180.889 1023.91 200.101C1023.91 220.018 1011.76 233.195 995.823 233.195V233.195ZM912.425 145.783L889.875 227.16L867.421 145.783H838.067L875.489 255.325H904.261L941.78 145.783H912.425V145.783Z" fill="#FAE232"/>
</g>
<defs>
<clipPath id="clip0_2989_533">
<rect width="1250" height="261.533" fill="white" transform="translate(125.008 57.2617)"/>
</clipPath>
</defs>
</svg>
