<svg width="1250" height="324" viewBox="0 0 1250 324" fill="none" xmlns="http://www.w3.org/2000/svg">
<mask id="mask0_16_35" style="mask-type:luminance" maskUnits="userSpaceOnUse" x="0" y="31" width="1250" height="262">
<path d="M1250 31H0V292.533H1250V31Z" fill="white"/>
</mask>
<g mask="url(#mask0_16_35)">
<path d="M262.041 72.9459C256.403 64.094 246.586 59.7686 236.575 61.4786L178.837 71.2358C175.533 48.402 156.092 31 133.25 31C110.505 31 90.968 48.402 87.663 71.1352L29.926 61.3781C19.817 59.7686 10.097 64.1946 4.45999 72.9459C-1.17801 81.6973 -1.27502 92.6613 4.07098 101.614C4.07098 101.614 4.07098 101.714 4.16798 101.714L111.575 279.154C116.24 286.899 124.405 291.627 133.25 291.627C142.096 291.627 150.26 287 154.926 279.154L262.43 101.714C267.873 92.7623 267.679 81.6973 262.041 72.9459ZM133.25 271.006C131.209 271.006 129.459 270 128.39 268.19L20.984 90.7503C19.72 88.6383 19.72 86.3243 21.081 84.3123C22.15 82.6023 23.9 81.5963 25.747 81.5963C26.135 81.5963 26.427 81.5963 26.816 81.6973L89.316 92.2593C95.537 115.897 114.685 147.482 133.347 147.482C152.01 147.482 171.158 115.897 177.379 92.2593L239.879 81.6973C242.115 81.2943 244.253 82.3003 245.614 84.3123C246.878 86.3243 246.975 88.7383 245.711 90.7503L138.11 268.19C137.041 270 135.291 271.006 133.25 271.006ZM133.25 51.6209C147.733 51.6209 159.494 63.4904 159.494 78.1763C159.494 97.7913 138.402 126.962 133.25 126.962C128.001 126.962 107.006 97.7913 107.006 78.1763C107.006 63.4904 118.767 51.6209 133.25 51.6209Z" fill="#FAE232"/>
<path d="M503.008 174.242C503.008 208.744 528.475 231.276 559.385 231.276C571.924 231.276 583.393 227.956 588.351 225.442V199.188C583.199 201.803 573.673 205.726 563.273 205.726C545.485 205.726 530.225 194.963 530.225 174.644C530.225 153.923 546.166 143.361 564.148 143.361C574.062 143.361 583.005 146.278 588.545 149.899V123.545C584.657 121.533 573.479 117.509 559.288 117.509C529.155 117.509 503.008 139.337 503.008 174.242ZM357.499 117.207C329.603 117.207 305.691 139.84 305.691 173.336C305.691 207.537 329.019 231.276 365.956 231.276C383.452 231.276 395.31 225.643 399.393 223.229V198.886C394.435 201.803 380.827 207.839 366.053 207.839C348.557 207.839 334.949 198.886 331.838 183.697H406.391C406.585 181.182 406.877 175.449 406.877 172.029C406.78 138.532 384.618 117.207 357.499 117.207ZM331.838 165.088C333.199 148.994 343.308 140.444 356.916 140.444C369.844 140.444 380.438 148.29 381.799 165.088H331.838ZM458.685 161.064C448.965 158.147 440.8 155.733 440.8 149.396C440.8 142.858 448.382 139.538 458.296 139.538C471.71 139.538 482.499 144.87 489.012 148.491V123.243C484.249 121.03 472.779 117.207 458.296 117.207C430.205 117.207 415.042 131.29 415.042 149.798C415.042 170.52 430.983 176.857 445.952 181.283C458.296 185.005 469.96 187.52 469.96 196.874C469.96 204.519 462.573 207.637 451.103 207.637C435.746 207.637 421.263 199.59 416.5 196.874V223.028C422.138 225.945 436.426 231.075 451.881 231.075C477.347 231.075 495.33 217.696 495.33 195.265C495.427 171.123 474.723 165.49 458.685 161.064ZM1240.37 117.207C1225.69 117.207 1214.42 129.982 1210.34 138.935V119.521H1184.38V229.164H1211.21V178.165C1211.21 159.153 1222.68 144.769 1240.56 144.769C1243.38 144.769 1246.59 144.97 1249.9 145.373V118.113C1247.47 117.71 1244.26 117.207 1240.37 117.207ZM1018.85 71.6406V134.308C1016.03 128.675 1006.02 117.308 987.552 117.308C959.652 117.308 937.692 141.651 937.692 174.041C937.692 206.933 959.562 231.276 987.552 231.276C1005.34 231.276 1013.7 221.921 1018.85 213.773V228.962H1045.68V71.6406H1018.85ZM992.222 206.933C977.932 206.933 964.812 193.957 964.812 174.041C964.812 153.42 978.222 141.852 992.222 141.852C1008.45 141.852 1020.31 154.627 1020.31 173.839C1020.41 193.756 1008.26 206.933 992.222 206.933ZM1114.98 117.207C1085.72 117.207 1059.19 141.55 1059.19 174.242C1059.19 206.933 1085.72 231.276 1114.98 231.276C1144.24 231.276 1170.77 206.933 1170.77 174.242C1170.77 141.55 1144.24 117.207 1114.98 117.207ZM1114.98 205.123C1099.62 205.123 1086.5 193.052 1086.5 174.242C1086.5 155.431 1099.72 143.361 1114.98 143.361C1130.34 143.361 1143.46 155.431 1143.46 174.242C1143.46 193.052 1130.44 205.123 1114.98 205.123ZM676.9 134.207C674.081 128.574 664.07 117.207 645.602 117.207C617.9 117.207 595.738 141.55 595.738 173.94C595.738 206.833 617.705 231.175 645.602 231.175C663.487 231.175 671.943 221.821 676.9 213.673V228.862H703.922V119.521H676.9V134.207ZM650.559 206.933C636.27 206.933 623.148 193.957 623.148 174.041C623.148 153.42 636.562 141.852 650.559 141.852C666.791 141.852 678.65 154.627 678.65 173.839C678.747 193.756 666.597 206.933 650.559 206.933ZM897.152 134.207C894.342 128.574 884.322 117.207 865.858 117.207C838.156 117.207 815.994 141.55 815.994 173.94C815.994 206.833 837.962 231.175 865.858 231.175C883.742 231.175 892.202 221.821 897.152 213.673V228.862H924.182V119.521H897.152V134.207ZM870.815 206.933C856.527 206.933 843.405 193.957 843.405 174.041C843.405 153.42 856.819 141.852 870.815 141.852C887.052 141.852 898.902 154.627 898.902 173.839C898.902 193.756 886.752 206.933 870.815 206.933ZM787.417 119.521L764.867 200.898L742.413 119.521H713.059L750.481 229.063H779.253L816.772 119.521H787.417Z" fill="#FAE232"/>
</g>
</svg>
