<svg width="635" height="531" viewBox="0 0 635 531" fill="none" xmlns="http://www.w3.org/2000/svg">
<path d="M0.343018 353.665H84.827L105.418 374.449V421.598L84.634 442.575H26.515V488.377H0.343018V353.665ZM72.895 420.636L79.631 413.9V382.339L72.895 375.604H26.515V420.636H72.895Z" fill="white"/>
<path d="M121.915 392.539H145.393V408.512L160.789 392.539H188.116V414.093H165.985L147.318 433.338V488.377H121.915V392.539Z" fill="white"/>
<path d="M193.849 468.363V412.553L213.671 392.539H268.711L288.532 412.553V468.363L268.711 488.377H213.671L193.849 468.363ZM256.394 467.208L263.13 460.472V420.444L256.394 413.708H225.987L219.252 420.444V460.472L225.987 467.208H256.394Z" fill="white"/>
<path d="M310.647 372.526V360.208L319.5 351.355H332.971L341.824 360.208V372.526L332.971 381.378H319.5L310.647 372.526ZM284.667 508.776H306.798L313.534 502.042V392.539H338.937V509.74L318.345 530.331H284.667V508.776Z" fill="white"/>
<path d="M362.051 468.748V412.553L381.873 392.539H435.951L455.965 412.553V448.926H387.454V461.242L393.613 467.593H424.981L430.755 461.627V456.624H455.773V469.133L436.721 488.377H381.489L362.051 468.748ZM430.562 431.221V420.059L424.019 413.323H393.998L387.454 420.059V431.221H430.562ZM412.28 351.163H439.03L419.978 383.686H397.654L412.28 351.163Z" fill="white"/>
<path d="M484.834 468.748V413.9H467.513V392.539H485.219V361.363H510.237V392.539H539.488V414.093H510.237V460.472L516.78 466.823H539.488V488.377H504.656L484.834 468.748Z" fill="white"/>
<path d="M554.896 372.526V360.208L563.749 351.355H577.22L586.072 360.208V372.526L577.22 381.378H563.749L554.896 372.526ZM557.783 392.539H583.186V488.378H557.783V392.539Z" fill="white"/>
<path d="M609.255 350.971H634.658V488.377H609.255V350.971Z" fill="white"/>
<mask id="mask0_29_22" style="mask-type:luminance" maskUnits="userSpaceOnUse" x="97" y="0" width="441" height="289">
<path d="M537.273 0.669922H97.728V288.672H537.273V0.669922Z" fill="white"/>
</mask>
<g mask="url(#mask0_29_22)">
<path d="M431.884 5.81284C417.222 6.82484 402.789 9.99284 389.05 15.2138L409.16 0.672852C364.625 2.27585 321.35 15.8759 283.904 40.0349C254.819 58.9849 230.09 83.8978 211.357 113.123C218.755 107.115 226.846 102.014 235.457 97.9288C242.619 94.5408 250.103 91.8819 257.798 89.9929C208.115 115.958 166.062 154.429 135.789 201.609C118.76 228.533 105.928 257.891 97.734 288.675C124.294 250.324 164.915 224.002 210.771 215.429C201.915 224.101 192.158 231.802 181.666 238.402C171.613 244.747 160.93 250.035 149.788 254.183C183.266 255.919 216.798 252.017 248.983 242.64C267.373 237.239 285.198 230.074 302.21 221.245C295.604 232.676 286.32 242.331 275.157 249.381C310.99 246.756 346.286 239.169 380.033 226.836C395.948 220.993 411.462 214.11 426.474 206.231L415.202 223.59C431.456 217.278 469.646 199.761 496.361 158.685C506.792 142.59 514.316 124.787 518.589 106.09C521.07 111.52 522.632 117.326 523.211 123.268C525.713 114.521 528.058 105.233 529.974 95.2679C533.901 76.2089 536.366 56.8768 537.346 37.4418C522.512 26.9138 483.488 2.25084 431.884 5.81284ZM352.055 47.6768C350.567 49.9318 349.463 51.7809 348.786 52.9529C342.14 64.6839 338.341 77.8109 337.695 91.2779C342.869 84.2729 349.46 78.4359 357.037 74.1439C366.628 69.0719 377.239 66.2288 388.081 65.8258L219.247 177.983L352.055 47.6768ZM432.087 182.74C363.327 183.792 294.575 184.761 225.83 185.648L420.95 144.685C428.134 157.31 435.334 169.942 442.548 182.582L432.087 182.74ZM451.678 97.6129C448.38 100.079 444.931 102.338 441.353 104.376C407.131 123.967 369.211 118.602 357.037 116.437C376.867 123.718 398.06 126.528 419.102 124.666L413.556 129.716L218.233 183.078L391.823 79.7348L427.691 79.2838C425.073 82.6188 422.807 86.2148 420.928 90.0158C426.573 85.0858 433.173 81.3719 440.316 79.1039C450.15 75.9359 460.705 75.7628 470.638 78.6078C465.196 85.7618 458.819 92.1539 451.678 97.6129Z" fill="white"/>
</g>
</svg>
