<svg width="1920" height="847" viewBox="0 0 1920 847" fill="none" xmlns="http://www.w3.org/2000/svg">
<g clip-path="url(#clip0_2851_1596)">
<path d="M929.269 407.769C783.714 532.106 680.35 540.865 627.411 487.927C578.625 439.141 619.071 316.828 717.654 196.05L530.398 8.75818H650.094L836.094 194.758C718.701 312.884 650.234 438.652 685.619 474.038C714.932 503.386 805.106 462.696 902.433 380.968L929.234 407.769H929.269Z" fill="#F5F5FA"/>
<path d="M1270.67 509.842H1150.97L964.899 323.772C1082.29 205.682 1150.76 79.8784 1115.41 44.5279C1086.1 15.1448 995.818 55.9043 898.49 137.668L871.689 110.867C1017.31 -13.4706 1120.68 -22.2646 1173.62 30.7088C1222.4 79.4946 1181.99 201.808 1083.37 322.586L1270.67 509.842Z" fill="#F5F5FA"/>
<path d="M154.209 776.7C165.62 767.034 171.343 752.342 171.343 733.149C171.343 697.729 151.034 677.419 115.613 677.419H0V844.47H27.8477V705.267H115.543C135.574 705.267 143.391 713.083 143.391 733.114C143.391 753.145 135.574 760.962 115.543 760.962H58.2428L137.528 844.435H173.437L121.162 788.67C134.702 787.798 145.799 783.819 154.139 776.665H154.174L154.209 776.7Z" fill="#F5F5FA"/>
<path d="M283.956 675.535H283.921C247.733 675.535 221.979 686.528 207.217 708.164C195.108 725.996 193.712 746.865 193.712 760.998C193.712 775.131 195.108 795.964 207.217 813.832C221.909 835.468 247.733 846.46 283.921 846.46H283.991C320.179 846.46 346.037 835.503 360.764 813.867C372.943 795.964 374.338 775.131 374.338 760.998C374.338 746.865 372.943 726.031 360.764 708.129C346.037 686.493 320.179 675.535 283.991 675.535H283.956ZM337.767 798.163C328.519 811.703 310.442 818.613 284.025 818.613H283.991C257.609 818.613 239.567 811.703 230.354 798.163C222.642 786.821 221.665 772.339 221.665 761.033C221.665 749.726 222.677 735.209 230.354 723.902C239.567 710.363 257.609 703.453 283.991 703.453H284.025C310.442 703.453 328.519 710.363 337.801 723.902C345.583 735.244 346.561 749.726 346.561 761.068C346.561 772.409 345.549 786.856 337.801 798.233V798.163H337.767Z" fill="#F5F5FA"/>
<path d="M1317.39 756.948C1307.97 750.457 1295.2 747.142 1279.35 747.142H1225.72C1198.78 747.142 1196.51 736.184 1196.51 725.925C1196.51 715.665 1198.78 704.673 1225.72 704.673H1327.93V677.313H1225.72C1209.87 677.313 1197.07 680.629 1187.68 687.119C1179.27 692.947 1169.22 704.393 1169.22 725.89C1169.22 747.386 1179.27 758.832 1187.68 764.66C1197.07 771.151 1209.87 774.466 1225.72 774.466H1279.35C1289.44 774.466 1297.19 776.176 1301.9 779.457C1304.76 781.446 1308.56 785.284 1308.56 795.718C1308.56 806.153 1306.29 816.936 1279.35 816.936H1176.13V844.295H1279.35C1295.2 844.295 1308 840.98 1317.39 834.489C1325.8 828.661 1335.85 817.18 1335.85 795.718C1335.85 774.257 1325.8 762.776 1317.39 756.948Z" fill="#F5F5FA"/>
<path d="M825.276 774.781H926.511V746.933H825.276V705.126H950.66V677.279H797.428V844.47H950.904V816.587H825.276V774.781Z" fill="#F5F5FA"/>
<path d="M1398.77 774.781H1500.01V746.933H1398.77V705.126H1524.15V677.279H1370.92V844.47H1524.4V816.587H1398.77V774.781Z" fill="#F5F5FA"/>
<path d="M975.716 704.463H1045.4V844.47H1073.25V704.463H1142.91V677.279H975.716V704.463Z" fill="#F5F5FA"/>
<path d="M1919.85 677.279H1752.66V704.568H1822.31V844.435H1850.16V704.568H1919.85V677.279Z" fill="#F5F5FA"/>
<path d="M768.673 677.279H733.567L662.726 760.961L733.357 844.47H768.673L699.123 760.961L768.673 677.279Z" fill="#F5F5FA"/>
<path d="M631.284 677.279H602.041V844.47H631.284V677.279Z" fill="#F5F5FA"/>
<path d="M1675.08 677.454H1608.22C1580.62 677.454 1558.18 699.892 1558.18 727.496V844.505H1585.82V787.065H1697.66V844.505H1724.95V775.339C1725.06 774.676 1725.09 773.944 1725.09 773.211V727.461C1725.09 699.858 1702.65 677.419 1675.05 677.419L1675.08 677.454ZM1697.49 759.392H1585.82V727.461C1585.82 715.107 1595.87 705.057 1608.22 705.057H1675.08C1687.44 705.057 1697.49 715.107 1697.49 727.461V759.392Z" fill="#F5F5FA"/>
<path d="M402.43 727.529V794.391C402.43 821.995 424.869 844.433 452.472 844.433H569.481V816.795H452.472C440.119 816.795 430.068 806.745 430.068 794.391V727.529C430.068 715.175 440.119 705.125 452.472 705.125H569.481V677.487H452.472C424.869 677.487 402.43 699.925 402.43 727.529Z" fill="#F5F5FA"/>
</g>
<defs>
<clipPath id="clip0_2851_1596">
<rect width="1919.85" height="846.46" fill="white"/>
</clipPath>
</defs>
</svg>
