<svg width="1890" height="384" viewBox="0 0 1890 384" fill="none" xmlns="http://www.w3.org/2000/svg">
<path fill-rule="evenodd" clip-rule="evenodd" d="M257.023 49.2613C254.314 45.3644 250.535 41.0992 245.817 36.8295C244.995 36.085 245.902 34.2494 247.003 34.3847C254.359 35.2889 264.908 34.8264 270.72 32.179C289.217 23.7547 307.271 17.4344 310.749 22.4013C314.227 27.3683 302.113 42.1721 287.87 56.6716C283.389 61.2339 279.424 71.1255 277.805 78.4104C277.566 79.4854 275.626 79.6989 275.213 78.6779C272.131 71.0541 268.576 64.8217 265.268 60.333L241.529 75.0666L265.268 115.706L283.033 111.702C282.596 106.584 281.839 101.698 280.845 97.0838C285.433 91.3393 290.709 85.6803 295.349 80.7033C297.81 78.0633 300.092 75.6152 301.998 73.4479C326.637 45.4322 345.231 13.7458 338.67 4.37573C332.109 -4.99433 295.974 1.64119 261.221 15.2121C258.724 16.1873 255.842 17.3973 252.699 18.7166L252.698 18.7169C246.658 21.2529 239.656 24.1923 232.582 26.6421C230.384 25.1986 228.079 23.7922 225.674 22.4395L222.612 42.6802L233.254 60.9001L257.023 49.2613Z" fill="white"/>
<path d="M263.854 187.776C298.476 131.676 279.559 79.7281 265.268 60.333L93.456 166.935C91.8132 167.954 91.5145 170.292 93.1102 171.384C99.3281 175.638 115.89 181.027 159.262 161.156C202.041 141.557 223.572 157.387 228.99 167.752C245.684 201.139 197.992 225.322 163.976 235.949C161.827 236.62 162.159 239.667 164.411 239.663C199.865 239.611 240.991 224.822 263.854 187.776Z" fill="white"/>
<path d="M257.023 49.2613C240.465 25.4457 183.943 -12.1283 117.525 19.5969C114.953 20.8252 115.552 24.4597 118.344 25.0307C129.926 27.3993 146.35 33.209 158.045 53.3322C159.46 55.767 156.849 58.3962 154.255 57.299C130.171 47.1111 92.9247 40.0887 71.6304 77.7651C62.4436 94.0193 67.2959 136.704 131.936 110.509L257.023 49.2613Z" fill="white"/>
<path d="M116.261 213.476C118.632 212.969 118.065 209.398 115.641 209.411C36.352 209.819 17.0918 174.139 55.3829 137.934C56.9531 136.449 55.5178 133.715 53.4622 134.381C6.63282 149.566 -1.22469 175.307 0.141429 186.887C4.73068 226.946 66.6468 224.075 116.261 213.476Z" fill="white"/>
<path d="M168.479 264.806C188.117 264.806 202.499 261.293 217.431 255.255C218.398 254.864 219.47 255.535 219.526 256.577L219.873 262.971C220.257 270.037 216.249 276.61 209.791 279.505C183.373 291.346 153.196 291.992 126.266 281.368C119.399 278.658 115.007 271.849 115.404 264.477L115.8 257.11C115.858 256.025 116.977 255.328 117.983 255.74C132.839 261.827 147.59 265.24 168.479 264.806Z" fill="white"/>
<path d="M210.74 291.352L211.244 291.141C212.011 290.82 212.866 291.353 212.913 292.183L213.287 298.754C213.669 305.47 210.057 311.781 204.072 314.853C181.58 326.398 155.055 327.084 131.998 316.715C125.576 313.827 121.598 307.28 121.993 300.249L122.418 292.691C122.466 291.829 123.357 291.278 124.151 291.616C138.709 297.807 147.402 301.286 168.481 300.849C188.059 300.849 196.4 297.356 210.74 291.352Z" fill="white"/>
<path d="M483.779 235.674C483.779 209.645 386.761 231.617 386.761 164.347C386.761 129.866 422.255 109.922 453.017 109.922C487.498 109.922 522.316 130.88 521.302 172.798H485.132C485.808 154.543 468.567 146.768 452.341 146.768C437.805 146.768 423.946 152.853 423.946 162.995C423.946 197.475 520.964 167.389 520.964 233.984C520.964 267.788 487.16 286.38 453.017 286.38C418.199 286.38 383.042 266.774 383.042 223.842H419.213C418.875 242.097 437.805 249.534 455.384 249.534C469.92 249.534 483.779 244.125 483.779 235.674ZM563.584 207.616C598.403 207.616 574.063 248.182 627.136 248.182C646.405 248.182 665.673 238.04 675.476 217.082L702.858 237.364C688.998 269.478 658.574 285.366 627.474 285.366C584.205 285.366 540.597 255.28 540.597 197.813C540.597 138.993 583.191 110.26 624.432 110.26C663.307 110.26 700.83 135.613 700.83 184.629V204.236H563.584V207.616ZM585.219 170.432H661.617C656.208 155.22 642.01 147.783 626.798 147.783C611.586 147.783 595.022 155.22 585.219 170.432ZM751.716 190.714V283H717.911V113.978H751.716V125.134C751.716 128.852 752.392 130.542 754.082 130.542C755.096 130.542 756.448 129.528 758.477 127.5C771.998 113.64 780.449 110.598 793.633 110.598C816.62 110.598 831.832 120.401 840.283 138.993C854.819 117.359 876.792 110.598 888.961 110.598C922.766 110.598 943.386 136.627 943.386 181.925V283H909.582V191.052C909.582 161.642 895.384 148.797 880.848 148.797C864.96 148.797 848.058 164.347 848.058 191.39V283H814.254V191.052C814.254 161.642 799.718 148.459 784.844 148.459C768.618 148.459 751.716 163.671 751.716 190.714ZM995.715 197.475C995.715 230.265 1020.73 248.182 1046.76 248.182C1066.03 248.182 1085.63 238.04 1095.1 217.082L1122.48 237.364C1108.62 269.478 1077.86 285.366 1046.42 285.366C1002.81 285.366 958.53 255.28 958.53 197.813C958.53 140.346 1002.81 110.26 1046.42 110.26C1077.86 110.26 1108.62 126.148 1122.48 158.262L1095.1 178.545C1085.63 157.586 1065.69 147.445 1046.42 147.445C1020.73 147.445 995.715 165.023 995.715 197.475ZM1215.62 286.38C1109.14 286.38 1105.08 110.598 1215.62 110.598C1326.16 110.598 1322.11 286.38 1215.62 286.38ZM1215.62 147.783C1154.77 147.783 1155.79 249.196 1215.28 249.196C1275.12 249.196 1274.78 147.783 1215.62 147.783ZM1346.26 190.714V283H1312.46V113.978H1346.26V125.134C1346.26 128.852 1346.94 130.542 1348.63 130.542C1349.64 130.542 1351 129.528 1353.02 127.5C1366.55 113.64 1375 110.598 1388.18 110.598C1411.17 110.598 1426.38 120.401 1434.83 138.993C1449.37 117.359 1471.34 110.598 1483.51 110.598C1517.31 110.598 1537.93 136.627 1537.93 181.925V283H1504.13V191.052C1504.13 161.642 1489.93 148.797 1475.4 148.797C1459.51 148.797 1442.61 164.347 1442.61 191.39V283H1408.8V191.052C1408.8 161.642 1394.27 148.459 1379.39 148.459C1363.17 148.459 1346.26 163.671 1346.26 190.714ZM1593.3 122.429C1603.45 115.668 1617.31 110.598 1631.16 110.598C1737.99 110.598 1733.93 286.718 1639.28 286.718C1619 286.718 1604.46 280.634 1592.63 268.802C1589.92 266.098 1588.57 266.774 1588.57 270.492V367.511H1554.77V113.978H1588.57V120.063C1588.57 123.782 1590.26 124.458 1593.3 122.429ZM1592.29 200.179C1592.29 232.97 1613.25 249.872 1634.21 249.872C1654.15 249.872 1673.76 233.984 1673.76 200.517C1673.76 164.685 1653.81 147.783 1633.87 147.783C1613.25 147.783 1592.29 165.699 1592.29 200.179ZM1721.03 283V265.929C1724.58 229.589 1782.05 229.927 1782.05 196.292C1782.05 186.996 1772.75 181.418 1762.95 181.418C1751.96 181.418 1740.47 187.841 1740.97 203.391H1722.55C1723.4 175.333 1743.34 162.995 1762.95 162.995C1783.91 162.995 1800.81 176.854 1800.81 198.489C1800.81 241.928 1742.49 243.111 1740.13 266.098H1796.75V283H1721.03ZM1825.27 248.689C1826.45 260.013 1835.75 265.76 1846.4 265.76C1860.59 265.76 1867.86 255.787 1867.86 245.815C1867.86 230.941 1856.54 224.349 1844.37 224.349C1838.45 224.349 1832.37 225.871 1827.3 228.744L1810.39 228.237L1813.94 164.516L1818.17 164.685H1873.95V181.587H1830L1828.31 210.828C1834.9 207.785 1842 206.264 1848.76 206.264C1868.54 206.264 1886.45 218.941 1886.45 244.463C1886.45 264.577 1873.44 284.859 1845.72 284.859C1829.49 284.859 1813.44 275.563 1808.37 256.633L1825.27 248.689Z" fill="white"/>
<path d="M1182.27 248.82C1188.97 238.541 1200.44 222.933 1206.85 215.368C1212.08 209.195 1214.27 207.086 1216.95 205.635C1223.05 202.341 1237.73 199.687 1258.77 198.078C1261.86 197.842 1264.43 197.611 1264.46 197.565C1264.5 197.518 1262.49 197.242 1259.99 196.951C1250.46 195.839 1240.24 193.805 1234.68 191.913C1229.36 190.104 1227.08 188.318 1227.13 186.001C1227.23 181.132 1235.78 161.832 1247.32 140.448C1248.24 138.733 1247.17 140.155 1244.13 144.678C1231.51 163.454 1218.77 180.11 1213.35 184.919C1212.15 185.982 1210.2 187.318 1209.02 187.888C1202.47 191.055 1186.17 193.78 1165.1 195.229L1162.14 195.432L1163.97 195.704C1164.97 195.854 1168.44 196.353 1171.67 196.812C1187.7 199.089 1197.55 202.133 1199.31 205.351C1199.54 205.773 1199.72 206.636 1199.71 207.269C1199.61 211.796 1191.8 229.871 1182.03 248.175C1181.2 249.742 1180.55 251.076 1180.6 251.138C1180.65 251.201 1181.4 250.157 1182.27 248.82Z" fill="white"/>
</svg>
