<svg width="1783" height="267" viewBox="0 0 1783 267" fill="none" xmlns="http://www.w3.org/2000/svg">
<path d="M361.974 213.782C354.575 213.791 347.452 212.874 340.605 211.032C333.759 209.005 327.466 206.238 321.728 202.73C315.989 199.037 310.989 194.603 306.729 189.428L326.129 169.983C330.76 175.342 336.037 179.405 341.959 182.173C348.067 184.756 354.913 186.043 362.497 186.034C369.341 186.026 374.52 185.003 378.032 182.964C381.544 180.925 383.298 177.964 383.294 174.079C383.289 170.009 381.62 166.867 378.288 164.651C374.956 162.435 370.607 160.59 365.241 159.116C360.059 157.457 354.508 155.799 348.586 154.141C342.85 152.483 337.298 150.269 331.93 147.501C326.748 144.547 322.488 140.575 319.153 135.584C315.818 130.593 314.145 124.121 314.136 116.167C314.126 107.658 316.06 100.349 319.938 94.2398C324 88.1307 329.637 83.4072 336.847 80.0692C344.243 76.731 353.027 75.056 363.201 75.0443C373.93 75.0319 383.367 76.9634 391.51 80.8386C399.839 84.5286 406.782 90.1626 412.34 97.7404L392.94 117.186C389.049 112.381 384.606 108.779 379.608 106.38C374.611 103.981 368.875 102.785 362.401 102.793C356.297 102.8 351.581 103.73 348.253 105.584C344.926 107.437 343.264 110.121 343.268 113.636C343.272 117.336 344.94 120.201 348.272 122.232C351.604 124.263 355.861 126.015 361.042 127.489C366.408 128.963 371.96 130.621 377.696 132.464C383.617 134.122 389.17 136.521 394.353 139.66C399.721 142.613 404.072 146.678 407.408 151.853C410.744 156.844 412.416 163.409 412.425 171.548C412.44 184.497 407.92 194.769 398.865 202.363C389.809 209.958 377.512 213.764 361.974 213.782ZM491.189 213.633C477.871 213.649 465.844 210.703 455.108 204.796C444.557 198.703 436.13 190.389 429.829 179.852C423.712 169.315 420.647 157.48 420.631 144.346C420.616 131.213 423.655 119.463 429.747 109.097C435.84 98.5458 444.062 90.2121 454.414 84.0958C464.951 77.9792 476.601 74.9136 489.365 74.8989C501.758 74.8846 512.676 77.7392 522.116 83.4628C531.742 89.1861 539.243 97.0392 544.619 107.022C550.18 117.005 552.968 128.378 552.982 141.142C552.985 143.361 552.803 145.674 552.435 148.079C552.253 150.299 551.886 152.797 551.334 155.572L442.01 155.698L441.981 130.726L535.489 130.618L524.125 140.62C523.745 132.481 522.165 125.639 519.384 120.092C516.603 114.546 512.621 110.296 507.438 107.342C502.44 104.388 496.241 102.916 488.842 102.924C481.073 102.933 474.323 104.606 468.592 107.942C462.862 111.278 458.428 116.001 455.29 122.109C452.152 128.032 450.588 135.155 450.598 143.479C450.607 151.804 452.28 159.108 455.617 165.394C458.954 171.679 463.677 176.576 469.785 180.084C475.894 183.406 482.925 185.063 490.879 185.054C497.723 185.046 504.011 183.836 509.743 181.425C515.66 179.013 520.65 175.493 524.714 170.864L544.16 190.542C537.695 198.134 529.839 203.877 520.595 207.772C511.35 211.668 501.548 213.621 491.189 213.633ZM569.206 210.769L569.052 77.5817L599.574 77.5465L599.728 210.733L569.206 210.769ZM657.72 210.667L657.628 131.309C657.618 122.43 654.835 115.589 649.28 110.786C643.725 105.798 636.878 103.309 628.739 103.318C623.189 103.324 618.196 104.44 613.759 106.665C609.507 108.89 606.089 112.131 603.504 116.388C600.919 120.461 599.63 125.457 599.636 131.376L587.697 124.731C587.686 114.557 589.895 105.767 594.326 98.3631C598.757 90.9587 604.763 85.2173 612.342 81.139C619.922 76.8757 628.428 74.7386 637.862 74.7277C647.296 74.7168 655.808 76.7418 663.397 80.8027C670.986 84.8635 677.004 90.591 681.452 97.9852C685.9 105.379 688.13 114.256 688.142 124.615L688.242 210.631L657.72 210.667ZM746.233 210.564L746.142 131.207C746.132 122.328 743.349 115.487 737.794 110.684C732.239 105.696 725.392 103.206 717.252 103.216C711.888 103.222 706.987 104.338 702.55 106.562C698.113 108.787 694.602 112.029 692.017 116.286C689.432 120.359 688.143 125.355 688.15 131.274L670.939 124.635C671.852 114.46 674.802 105.67 679.788 98.2645C684.774 90.8595 691.149 85.1177 698.914 81.0392C706.863 76.7754 715.555 74.6381 724.989 74.6273C734.608 74.6162 743.304 76.6409 751.078 80.7016C758.852 84.7622 765.056 90.4895 769.689 97.8834C774.322 105.277 776.644 114.154 776.656 124.513L776.755 210.529L746.233 210.564ZM861.201 213.207C848.067 213.222 836.133 210.183 825.397 204.091C814.846 197.999 806.512 189.685 800.395 179.148C794.279 168.611 791.213 156.868 791.198 143.919C791.183 130.785 794.222 119.036 800.314 108.67C806.406 98.1186 814.721 89.7848 825.258 83.6683C835.98 77.5515 847.908 74.4856 861.041 74.4704C871.4 74.4585 881.022 76.4822 889.905 80.5415C898.974 84.4157 906.657 90.0488 912.955 97.4408L893 117.719C889.111 113.099 884.39 109.683 878.838 107.469C873.47 105.071 867.549 103.875 861.075 103.883C853.491 103.891 846.741 105.656 840.826 109.178C835.095 112.514 830.568 117.144 827.246 123.067C824.108 128.99 822.543 135.929 822.553 143.883C822.561 151.652 824.142 158.587 827.294 164.688C830.63 170.604 835.168 175.315 840.906 178.823C846.829 182.146 853.583 183.803 861.167 183.795C867.642 183.787 873.56 182.67 878.922 180.444C884.468 178.033 889.181 174.513 893.061 169.884L913.062 190.117C906.781 197.523 899.111 203.266 890.052 207.346C881.177 211.241 871.56 213.195 861.201 213.207ZM985.103 213.064C972.155 213.079 960.405 210.04 949.854 203.948C939.303 197.671 930.876 189.264 924.575 178.727C918.458 168.19 915.393 156.447 915.378 143.499C915.363 130.55 918.401 118.892 924.494 108.526C930.771 98.1602 939.178 89.9188 949.715 83.8023C960.252 77.5007 971.995 74.3425 984.944 74.3276C998.077 74.3125 1009.92 77.351 1020.47 83.4432C1031.02 89.5355 1039.36 97.8501 1045.47 108.387C1051.77 118.739 1054.93 130.389 1054.95 143.338C1054.96 156.286 1051.83 168.036 1045.55 178.588C1039.46 189.139 1031.15 197.565 1020.61 203.866C1010.07 209.983 998.237 213.049 985.103 213.064ZM985.07 183.652C992.654 183.643 999.311 181.971 1005.04 178.634C1010.96 175.113 1015.48 170.298 1018.62 164.19C1021.94 158.082 1023.6 151.143 1023.59 143.374C1023.58 135.605 1021.91 128.762 1018.57 122.847C1015.24 116.931 1010.7 112.312 1004.96 108.989C999.223 105.481 992.562 103.731 984.977 103.74C977.578 103.748 970.921 105.513 965.006 109.035C959.275 112.371 954.748 117.001 951.425 122.924C948.287 128.847 946.723 135.693 946.732 143.462C946.741 151.232 948.321 158.167 951.473 164.267C954.81 170.368 959.347 175.172 965.086 178.68C971.009 182.003 977.67 183.66 985.07 183.652ZM1072.08 210.189L1071.93 77.0021L1102.45 76.9669L1102.6 210.154L1072.08 210.189ZM1160.6 210.087L1160.5 130.73C1160.49 121.851 1157.71 115.009 1152.16 110.206C1146.6 105.218 1139.75 102.729 1131.61 102.738C1126.06 102.745 1121.07 103.86 1116.63 106.085C1112.38 108.31 1108.96 111.551 1106.38 115.809C1103.79 119.881 1102.51 124.877 1102.51 130.797L1090.57 124.151C1090.56 113.977 1092.77 105.188 1097.2 97.7834C1101.63 90.379 1107.64 84.6376 1115.22 80.5593C1122.8 76.296 1131.3 74.1589 1140.74 74.148C1150.17 74.1371 1158.68 76.1621 1166.27 80.223C1173.86 84.2838 1179.88 90.0113 1184.33 97.4055C1188.78 104.8 1191.01 113.676 1191.02 124.035L1191.12 210.052L1160.6 210.087ZM1249.11 209.985L1249.02 130.628C1249.01 121.749 1246.22 114.907 1240.67 110.104C1235.11 105.116 1228.27 102.627 1220.13 102.636C1214.76 102.642 1209.86 103.758 1205.43 105.983C1200.99 108.208 1197.48 111.449 1194.89 115.707C1192.31 119.779 1191.02 124.775 1191.03 130.695L1173.81 124.055C1174.73 113.88 1177.68 105.09 1182.66 97.6849C1187.65 90.2798 1194.02 84.5381 1201.79 80.4595C1209.74 76.1958 1218.43 74.0584 1227.86 74.0476C1237.48 74.0365 1246.18 76.0613 1253.95 80.1219C1261.73 84.1825 1267.93 89.9098 1272.56 97.3038C1277.2 104.698 1279.52 113.574 1279.53 123.933L1279.63 209.95L1249.11 209.985ZM1374.07 212.615C1363.89 212.627 1354.83 210.51 1346.87 206.265C1338.91 201.835 1332.61 195.83 1327.98 188.251C1323.53 180.672 1321.3 172.073 1321.29 162.454L1321.24 124.163C1321.23 114.543 1323.54 105.939 1328.15 98.3496C1332.77 90.76 1339.05 84.8333 1347 80.5696C1354.95 76.1209 1363.92 73.8907 1373.91 73.8792C1385.93 73.8654 1396.75 76.9976 1406.38 83.2759C1416.19 89.369 1423.88 97.6843 1429.44 108.222C1435.19 118.574 1438.07 130.317 1438.08 143.451C1438.1 156.4 1435.24 168.149 1429.52 178.7C1423.98 189.065 1416.32 197.306 1406.52 203.421C1396.91 209.537 1386.09 212.602 1374.07 212.615ZM1302.82 265.417L1302.6 76.7362L1333.12 76.701L1333.16 112.495L1327.93 144.965L1333.24 177.146L1333.34 265.382L1302.82 265.417ZM1369.04 183.764C1376.44 183.756 1382.91 182.083 1388.46 178.747C1394.19 175.226 1398.62 170.411 1401.76 164.303C1405.08 158.195 1406.74 151.164 1406.73 143.21C1406.72 135.255 1405.05 128.228 1401.71 122.127C1398.56 116.027 1394.11 111.315 1388.37 107.992C1382.82 104.483 1376.34 102.734 1368.94 102.742C1361.55 102.751 1354.98 104.516 1349.25 108.037C1343.52 111.373 1339.09 116.095 1335.95 122.203C1332.81 128.311 1331.25 135.342 1331.26 143.297C1331.26 151.251 1332.84 158.278 1336 164.379C1339.15 170.48 1343.59 175.284 1349.33 178.792C1355.07 182.115 1361.64 183.773 1369.04 183.764ZM1442.33 200.328L1478.08 162.273C1481.04 159.125 1483.44 156.301 1485.29 153.802C1487.13 151.302 1488.47 148.942 1489.3 146.722C1490.13 144.501 1490.54 142.234 1490.54 139.922C1490.54 135.575 1489.1 132.201 1486.23 129.799C1483.45 127.305 1479.89 126.061 1475.54 126.066C1470.92 126.071 1466.85 127.232 1463.34 129.548C1459.83 131.865 1456.69 135.475 1453.92 140.38L1442.81 131.237C1446.59 124.665 1451.26 119.712 1456.8 116.376C1462.35 112.947 1468.77 111.229 1476.08 111.22C1482.09 111.213 1487.37 112.41 1491.9 114.809C1496.44 117.209 1499.95 120.581 1502.46 124.925C1504.96 129.176 1506.21 134.123 1506.22 139.765C1506.22 143.835 1505.72 147.489 1504.71 150.727C1503.78 153.873 1502.17 157.066 1499.86 160.306C1497.55 163.453 1494.37 167.156 1490.3 171.416L1462.86 199.888L1442.33 200.328ZM1442.34 209.762L1442.33 200.328L1456.06 195.456L1508.23 195.396L1508.24 209.686L1442.34 209.762ZM1543.62 211.033C1536.87 211.04 1530.86 209.891 1525.58 207.585C1520.31 205.186 1515.87 201.723 1512.25 197.195L1523.06 186.361C1525.01 189.319 1527.74 191.674 1531.26 193.427C1534.87 195.181 1538.89 196.055 1543.33 196.049C1547.4 196.045 1550.96 195.301 1554.01 193.817C1557.06 192.334 1559.46 190.204 1561.22 187.427C1562.97 184.65 1563.85 181.366 1563.84 177.574C1563.84 173.597 1562.95 170.314 1561.19 167.727C1559.53 165.046 1557.26 163.06 1554.39 161.769C1551.61 160.385 1548.61 159.694 1545.37 159.698C1541.67 159.702 1538.34 160.122 1535.38 160.958C1532.51 161.794 1529.69 163.277 1526.92 165.408L1527.33 155.418C1528.81 153.474 1530.51 151.9 1532.46 150.695C1534.4 149.398 1536.66 148.424 1539.25 147.774C1541.84 147.123 1544.89 146.796 1548.41 146.792C1555.25 146.784 1560.99 148.211 1565.61 151.073C1570.33 153.935 1573.9 157.769 1576.31 162.576C1578.72 167.29 1579.93 172.561 1579.93 178.388C1579.94 184.677 1578.38 190.275 1575.24 195.18C1572.19 200.086 1567.94 203.975 1562.49 206.849C1557.03 209.63 1550.75 211.024 1543.62 211.033ZM1526.92 165.408L1518.17 156.677L1522.42 112.554L1536.99 112.537L1532.05 158.465L1526.92 165.408ZM1525.21 126.841L1522.42 112.554L1574.45 112.494L1574.46 126.784L1525.21 126.841Z" fill="white"/>
<path d="M958.335 187.128C963.824 178.684 973.219 165.862 978.473 159.647C982.76 154.575 984.555 152.842 986.757 151.648C991.758 148.938 1003.81 146.746 1021.08 145.405C1023.62 145.209 1025.72 145.017 1025.75 144.979C1025.78 144.941 1024.13 144.716 1022.08 144.479C1014.25 143.576 1005.86 141.916 1001.3 140.368C996.93 138.888 995.057 137.425 995.094 135.523C995.172 131.526 1002.18 115.676 1011.62 98.1128C1012.38 96.7039 1011.5 97.8723 1009.01 101.588C998.672 117.011 988.228 130.695 983.781 134.648C982.798 135.521 981.202 136.62 980.235 137.088C974.858 139.695 961.478 141.946 944.188 143.155L941.762 143.325L943.257 143.547C944.08 143.669 946.927 144.075 949.584 144.449C962.742 146.302 970.834 148.792 972.278 151.432C972.467 151.778 972.614 152.486 972.604 153.005C972.531 156.721 966.138 171.565 958.136 186.599C957.451 187.886 956.923 188.981 956.963 189.032C957.003 189.084 957.621 188.227 958.335 187.128Z" fill="white"/>
<path fill-rule="evenodd" clip-rule="evenodd" d="M197.362 39.645C195.32 36.7146 192.488 33.5133 188.962 30.3043C188.288 29.6913 189.035 28.1633 189.94 28.2664C195.572 28.9081 203.477 28.5224 207.863 26.5187C222.055 20.0349 235.91 15.1667 238.584 18.9768C241.258 22.7869 231.972 34.1627 221.05 45.3066C217.669 48.757 214.676 56.1683 213.403 61.7345C213.202 62.6157 211.591 62.7935 211.249 61.957C208.9 56.2229 206.208 51.5304 203.702 48.1375L185.49 59.4696L203.751 90.6481L217.385 87.558C217.046 83.6296 216.46 79.879 215.693 76.3376C219.21 71.9234 223.255 67.5743 226.813 63.7493C228.7 61.7204 230.45 59.8389 231.911 58.1734C250.802 36.6437 265.049 12.3014 260.004 5.11375C254.958 -2.07391 227.223 3.05221 200.555 13.5015C198.639 14.2523 196.427 15.1838 194.016 16.1994L194.015 16.1997C189.38 18.1519 184.007 20.4147 178.579 22.3017C176.89 21.1955 175.119 20.1178 173.272 19.0814L170.939 34.6231L179.125 48.6012L197.362 39.645Z" fill="white"/>
<path d="M202.73 145.977C229.259 102.878 214.691 63.0146 203.702 48.1374L72.0659 130.023C70.7184 130.861 70.4722 132.778 71.7958 133.653C76.6961 136.894 89.4999 140.758 122.41 125.634C155.234 110.55 171.778 122.684 175.947 130.636C188.694 156.058 152.752 174.578 126.69 182.861C124.929 183.421 125.208 185.913 127.056 185.896C154.132 185.653 185.344 174.221 202.73 145.977Z" fill="white"/>
<path d="M197.363 39.6449C184.665 21.4263 141.443 -7.26145 90.6626 16.7947C88.5486 17.7961 89.0435 20.7777 91.3325 21.26C100.123 23.1121 112.329 27.6051 121.156 42.4772C122.336 44.465 120.199 46.6237 118.065 45.7353C99.557 38.0297 71.2555 32.9605 55.0607 61.6915C48.0223 74.1781 51.7852 106.943 101.387 86.776L197.363 39.6449Z" fill="white"/>
<path d="M88.3589 166.069C90.3062 165.658 89.8344 162.721 87.8443 162.722C28.1603 162.764 13.5768 135.78 42.2804 108.241C43.5604 107.013 42.3792 104.77 40.6947 105.326C5.17237 117.043 -0.780312 136.678 0.274105 145.529C3.79904 175.987 50.467 174.059 88.3589 166.069Z" fill="white"/>
<path d="M129.578 205.199C144.654 205.182 155.692 202.472 167.15 197.823C167.892 197.522 168.715 198.036 168.76 198.836L169.032 203.744C169.333 209.169 166.261 214.219 161.306 216.447C141.035 225.56 117.869 226.083 97.1849 217.951C91.9105 215.877 88.5332 210.653 88.831 204.993L89.1287 199.337C89.1725 198.504 90.0312 197.968 90.8032 198.283C102.214 202.944 113.541 205.55 129.578 205.199Z" fill="white"/>
<path d="M162.044 225.541L162.43 225.378C163.018 225.131 163.675 225.54 163.712 226.177L164.005 231.221C164.305 236.377 161.537 241.225 156.945 243.589C139.688 252.471 119.325 253.021 101.615 245.081C96.6826 242.87 93.6228 237.848 93.9198 232.45L94.2392 226.647C94.2757 225.985 94.9591 225.561 95.569 225.82C106.75 230.56 113.427 233.223 129.609 232.869C144.639 232.851 151.039 230.163 162.044 225.541Z" fill="white"/>
</svg>
